<svg width="105" height="29" viewBox="0 0 105 29" fill="none" xmlns="http://www.w3.org/2000/svg">
<path d="M0.301795 6.36157V11.072H7.87383V12.2494C7.87383 12.2494 0.167852 11.4797 0.0101729 17.9662L0 17.9713C0.000847739 18.0264 0.0042387 18.0797 0.00678191 18.1339C0.00678191 18.146 0.00678191 18.1571 0.00678191 18.1692L0.0118684 18.2552L0.0144116 18.2569C0.197523 20.8482 2.15495 22.6517 4.88976 22.6517C7.62457 22.6517 9.64304 21.0813 9.86428 18.25H10.8596V22.2595H16.8293V6.36157H0.301795ZM10.8587 13.7356C10.8587 16.9316 9.58706 18.1098 8.17812 18.1098C7.15575 18.1098 6.32667 17.4648 6.32667 16.2874C6.32667 15.6423 6.49284 14.7737 7.68055 13.7356L10.8587 10.9603V13.7356Z" fill="#5523B2"/>
<path d="M17.536 19.6235L22.124 16.5677C22.6767 18.5588 24.8876 19.1195 26.7671 19.1195C28.7847 19.1195 29.8622 18.5304 29.8622 17.8295C29.8622 16.8197 28.5905 16.7363 26.1864 16.7363C23.3397 16.7363 18.31 16.6245 18.31 12.0542C18.3091 8.15563 22.3724 6.36157 26.4347 6.36157C30.4971 6.36157 33.7583 7.84774 35.0571 9.75445L30.1657 12.222C29.6129 11.0445 27.9827 10.4838 26.2966 10.4838C24.4451 10.4838 23.6431 10.9327 23.6431 11.5494C23.6431 12.2787 24.5553 12.3062 26.8764 12.3062C29.668 12.3062 35.3886 12.418 35.3886 17.3246C35.3886 21.1381 31.2982 23.2968 26.6001 23.2968C21.9019 23.2968 19.0552 21.8665 17.5352 19.6235H17.536Z" fill="#5523B2"/>
<path d="M36.0947 6.83804H42.0645V10.5956H43.0318C43.2531 8.2683 44.6069 6.36157 47.6198 6.36157C51.4338 6.36157 53.9761 9.69767 53.9761 14.6886C53.9761 19.6794 51.4338 23.1282 47.5918 23.1282C44.5798 23.1282 43.2531 21.2215 43.0318 18.8942H42.0645V28.8759H36.0947V6.83804ZM48.0063 14.7445C48.0063 12.4172 46.8729 10.9878 45.0494 10.9878C43.2259 10.9878 42.0645 12.418 42.0645 14.7445C42.0645 17.0709 43.1979 18.502 45.0494 18.502C46.9009 18.502 48.0063 17.0717 48.0063 14.7445Z" fill="#5523B2"/>
<path d="M63.7196 6.36157C58.3025 6.36157 54.6826 9.75445 54.6826 14.8288C54.6826 19.903 58.3033 23.3243 63.7196 23.3243C69.1355 23.3243 72.7296 19.9314 72.7296 14.8288C72.7296 9.72609 69.1355 6.36157 63.7196 6.36157ZM63.7051 20.3356C61.9215 16.5385 62.0342 16.6529 58.2915 14.8433C62.0342 13.0338 61.9215 13.1482 63.7051 9.3511C65.4888 13.1482 65.376 13.0338 69.1188 14.8433C65.376 16.6529 65.4888 16.5385 63.7051 20.3356Z" fill="#5523B2"/>
<path d="M73.4355 6.38307H79.4052V11.9347H80.4003C80.4284 7.81333 82.5833 6.36157 85.3748 6.36157H87.1711V11.1323L85.0705 11.1684C81.0631 11.1684 79.4052 13.4484 79.4052 17.0649V22.2802H73.4355V6.38307Z" fill="#5523B2"/>
<path d="M88.1796 6.36157V11.072H95.7516V12.2494C95.7516 12.2494 88.0458 11.4797 87.888 17.9662L87.8779 17.9713C87.8786 18.0264 87.8819 18.0797 87.8846 18.1339C87.8846 18.146 87.8846 18.1571 87.8846 18.1692L87.89 18.2552L87.892 18.2569C88.0752 20.8482 90.0328 22.6517 92.7675 22.6517C95.5021 22.6517 97.5205 21.0813 97.7419 18.25H98.7371V22.2595H104.707V6.36157H88.1802H88.1796ZM98.7364 13.7356C98.7364 16.9316 97.465 18.1098 96.0559 18.1098C95.0333 18.1098 94.2047 17.4648 94.2047 16.2874C94.2047 15.6423 94.3705 14.7737 95.5583 13.7356L98.7364 10.9603V13.7356Z" fill="#5523B2"/>
</svg>
