<svg width="385" height="20" viewBox="0 0 385 20" fill="none" xmlns="http://www.w3.org/2000/svg">
<path d="M18.3263 3.33172C18.3263 3.33172 17.7432 5.08106 16.6603 6.16398C17.9931 14.4941 8.82996 20.5752 1.66602 15.827C3.49865 15.9103 5.33129 15.3272 6.66412 14.1609C2.49903 12.9114 0.416491 7.99661 2.49903 4.16474C4.33167 6.33058 7.16392 7.58011 9.99618 7.49681C9.24647 3.99814 13.3282 1.9989 15.8273 4.33134C16.7436 4.33134 18.3263 3.33172 18.3263 3.33172Z" stroke="#90A1B9" stroke-width="1.66603" stroke-linecap="round" stroke-linejoin="round"/>
<g clip-path="url(#clip0_356_14541)">
<path d="M49.3182 6.66406C50.6437 6.66406 51.915 7.19065 52.8524 8.12797C53.7897 9.0653 54.3163 10.3366 54.3163 11.6622V17.4933H50.9842V11.6622C50.9842 11.2203 50.8087 10.7965 50.4962 10.4841C50.1838 10.1717 49.76 9.99613 49.3182 9.99613C48.8763 9.99613 48.4525 10.1717 48.1401 10.4841C47.8277 10.7965 47.6521 11.2203 47.6521 11.6622V17.4933H44.3201V11.6622C44.3201 10.3366 44.8467 9.0653 45.784 8.12797C46.7213 7.19065 47.9926 6.66406 49.3182 6.66406Z" stroke="#90A1B9" stroke-width="1.66603" stroke-linecap="round" stroke-linejoin="round"/>
<path d="M40.9881 7.49707H37.656V17.4933H40.9881V7.49707Z" stroke="#90A1B9" stroke-width="1.66603" stroke-linecap="round" stroke-linejoin="round"/>
<path d="M39.322 4.99808C40.2422 4.99808 40.9881 4.25217 40.9881 3.33205C40.9881 2.41192 40.2422 1.66602 39.322 1.66602C38.4019 1.66602 37.656 2.41192 37.656 3.33205C37.656 4.25217 38.4019 4.99808 39.322 4.99808Z" stroke="#90A1B9" stroke-width="1.66603" stroke-linecap="round" stroke-linejoin="round"/>
</g>
<g clip-path="url(#clip1_356_14541)">
<path d="M86.5639 5.4165H86.5722M77.8139 1.6665H86.1472C88.4484 1.6665 90.3139 3.53198 90.3139 5.83317V14.1665C90.3139 16.4677 88.4484 18.3332 86.1472 18.3332H77.8139C75.5127 18.3332 73.6472 16.4677 73.6472 14.1665V5.83317C73.6472 3.53198 75.5127 1.6665 77.8139 1.6665ZM85.3139 9.47484C85.4167 10.1684 85.2983 10.8767 84.9753 11.499C84.6524 12.1213 84.1415 12.626 83.5152 12.9412C82.889 13.2564 82.1793 13.3662 81.487 13.2548C80.7948 13.1434 80.1554 12.8166 79.6596 12.3208C79.1638 11.825 78.837 11.1856 78.7256 10.4933C78.6142 9.80113 78.7239 9.09142 79.0392 8.46515C79.3544 7.83888 79.859 7.32795 80.4814 7.00504C81.1037 6.68212 81.812 6.56366 82.5056 6.6665C83.213 6.77141 83.8679 7.10106 84.3736 7.60676C84.8793 8.11246 85.209 8.7674 85.3139 9.47484Z" stroke="#90A1B9" stroke-width="2" stroke-linecap="round" stroke-linejoin="round"/>
</g>
<path d="M126.304 5.83105L118.814 10.6017C118.56 10.7494 118.272 10.8271 117.978 10.8271C117.684 10.8271 117.395 10.7494 117.141 10.6017L109.644 5.83105" stroke="#90A1B9" stroke-width="1.66603" stroke-linecap="round" stroke-linejoin="round"/>
<path d="M124.638 3.33203H111.31C110.39 3.33203 109.644 4.07794 109.644 4.99806V14.9943C109.644 15.9144 110.39 16.6603 111.31 16.6603H124.638C125.558 16.6603 126.304 15.9144 126.304 14.9943V4.99806C126.304 4.07794 125.558 3.33203 124.638 3.33203Z" stroke="#90A1B9" stroke-width="1.66603" stroke-linecap="round" stroke-linejoin="round"/>
<defs>
<clipPath id="clip0_356_14541">
<rect width="19.9924" height="19.9924" fill="white" transform="translate(35.99)"/>
</clipPath>
<clipPath id="clip1_356_14541">
<rect width="20" height="20" fill="white" transform="translate(71.9802)"/>
</clipPath>
</defs>
</svg>
