<svg width="1232" height="26" viewBox="0 0 1232 26" fill="none" xmlns="http://www.w3.org/2000/svg">
<mask id="mask0_356_14099" style="mask-type:luminance" maskUnits="userSpaceOnUse" x="0" y="1" width="97" height="24">
<path d="M96.878 1.85938H0.724609V24.0487H96.878V1.85938Z" fill="white"/>
</mask>
<g mask="url(#mask0_356_14099)">
<path fill-rule="evenodd" clip-rule="evenodd" d="M6.5052 8.13141H9.70766V5.45856H6.5052V1.85986L3.71699 2.68107V5.45856H1.33984V8.13141H3.71062V14.3047C3.71062 15.982 4.17585 17.1362 5.10632 17.7607C6.03678 18.3854 7.56948 18.5693 9.70445 18.3124V15.8203C9.00025 15.8552 8.41076 15.8584 7.93597 15.833C7.46433 15.8044 7.10745 15.6776 6.86528 15.4461C6.62629 15.2147 6.5052 14.8342 6.5052 14.3015V8.13141ZM24.3083 5.45852H21.5201V7.28165C20.4685 5.84217 18.9613 5.12243 16.9984 5.12243C15.2235 5.12243 13.7067 5.77242 12.4513 7.07556C11.1926 8.3787 10.5648 9.9799 10.5648 11.8823C10.5648 13.7689 11.1926 15.3669 12.4513 16.6763C13.7099 17.9858 15.2235 18.6421 16.9984 18.6421C18.9613 18.6421 20.4685 17.9129 21.5201 16.4576V18.3092H24.3083V5.45852ZM17.4382 15.9979C16.2655 15.9979 15.2936 15.6078 14.5193 14.8279C13.745 14.0478 13.3562 13.0681 13.3562 11.8855C13.3562 10.7028 13.745 9.72306 14.5193 8.94305C15.2936 8.16309 16.2655 7.77311 17.4382 7.77311C18.6076 7.77311 19.5827 8.16309 20.357 8.94305C21.1313 9.72306 21.5201 10.7028 21.5201 11.8855C21.5201 13.0681 21.1313 14.0478 20.357 14.8279C19.5827 15.6078 18.6076 15.9979 17.4382 15.9979ZM48.1276 5.45852H50.9158V18.3092H48.1276V16.4576C47.076 17.9129 45.5688 18.6421 43.6059 18.6421C41.831 18.6421 40.3174 17.9858 39.0587 16.6763C37.8 15.3669 37.1723 13.7689 37.1723 11.8823C37.1723 9.9799 37.8 8.3787 39.0587 7.07556C40.3142 5.77242 41.831 5.12243 43.6059 5.12243C45.5688 5.12243 47.076 5.84217 48.1276 7.28165V5.45852ZM41.1268 14.8279C41.9011 15.6078 42.873 15.9979 44.0456 15.9979C45.2151 15.9979 46.1901 15.6078 46.9645 14.8279C47.7388 14.0478 48.1276 13.0681 48.1276 11.8855C48.1276 10.7028 47.7388 9.72306 46.9645 8.94305C46.1901 8.16309 45.2151 7.77311 44.0456 7.77311C42.873 7.77311 41.9011 8.16309 41.1268 8.94305C40.3525 9.72306 39.9637 10.7028 39.9637 11.8855C39.9637 13.0681 40.3525 14.0478 41.1268 14.8279ZM65.4976 7.09145C64.239 5.78197 62.7252 5.12564 60.9502 5.12564C58.9873 5.12564 57.4801 5.85172 56.4286 7.31022V5.45856H53.6403V23.4521H56.4286V16.4861C57.4801 17.9256 58.9873 18.6453 60.9502 18.6453C62.7252 18.6453 64.239 17.9954 65.4976 16.6923C66.7562 15.3891 67.3837 13.7879 67.3837 11.8855C67.3837 9.99895 66.7532 8.40095 65.4976 7.09145ZM60.5105 15.9979C59.3378 15.9979 58.3659 15.6079 57.5916 14.8279C56.8173 14.0479 56.4286 13.0682 56.4286 11.8855C56.4286 10.7028 56.8173 9.72306 57.5916 8.94311C58.3659 8.16316 59.3378 7.77314 60.5105 7.77314C61.6799 7.77314 62.6549 8.16316 63.4291 8.94311C64.2039 9.72306 64.5922 10.7028 64.5922 11.8855C64.5922 13.0682 64.2039 14.0479 63.4291 14.8279C62.6549 15.6079 61.6799 15.9979 60.5105 15.9979ZM79.639 5.45852H82.4274V18.3092H79.639V16.4576C78.5874 17.9129 77.0804 18.6421 75.1173 18.6421C73.3428 18.6421 71.829 17.9858 70.5703 16.6763C69.3117 15.3669 68.6836 13.7689 68.6836 11.8823C68.6836 9.9799 69.3117 8.3787 70.5703 7.07556C71.8259 5.77242 73.3428 5.12243 75.1173 5.12243C77.0804 5.12243 78.5874 5.84217 79.639 7.28165V5.45852ZM72.6383 14.8279C73.4124 15.6078 74.3844 15.9979 75.5574 15.9979C76.7266 15.9979 77.7017 15.6078 78.4759 14.8279C79.25 14.0478 79.639 13.0681 79.639 11.8855C79.639 10.7028 79.25 9.72306 78.4759 8.94305C77.7017 8.16309 76.7266 7.77311 75.5574 7.77311C74.3844 7.77311 73.4124 8.16309 72.6383 8.94305C71.8641 9.72306 71.4752 10.7028 71.4752 11.8855C71.4752 13.0681 71.8641 14.0478 72.6383 14.8279ZM96.8307 5.45858H93.8604L90.5592 14.7898L86.7069 5.46175H83.6571L89.1347 18.081L89.0041 18.3378C88.6601 19.2288 88.2207 19.8851 87.6881 20.3036C87.1531 20.7221 86.4486 20.9061 85.569 20.8553V23.4521C88.5295 23.6233 90.6325 22.0443 91.872 18.7215L96.8307 5.45858Z" fill="#0B3747"/>
<path d="M34.477 5.4585L32.6033 8.08064H32.6097L31.3669 9.80228C30.7456 10.6647 31.3638 11.8663 32.4313 11.8663C32.855 11.8663 33.2534 11.6634 33.4987 11.321L36.3794 7.307L37.7145 5.4585H34.477Z" fill="#00A9DE"/>
<path d="M26.8223 5.4585V8.08064H32.6027L34.4764 5.4585H26.8223Z" fill="#0B84AE"/>
<path d="M30.3635 15.6883L30.7236 15.1873L31.6222 13.9349C32.2436 13.0694 31.6222 11.8677 30.5515 11.8677C30.1277 11.8677 29.7294 12.0706 29.4841 12.413L26.5652 16.4588L25.2109 18.3105H28.5536L30.3763 15.6883H30.3635Z" fill="#B2F000"/>
<path d="M36.6399 15.6882H30.3752L28.5525 18.3103H36.6399V15.6882Z" fill="#87B613"/>
</g>
<g clip-path="url(#clip0_356_14099)">
<mask id="mask1_356_14099" style="mask-type:luminance" maskUnits="userSpaceOnUse" x="169" y="1" width="85" height="24">
<path d="M253.933 1.28271H169.824V24.5769H253.933V1.28271Z" fill="white"/>
</mask>
<g mask="url(#mask1_356_14099)">
<path fill-rule="evenodd" clip-rule="evenodd" d="M183.426 18.2108C183.426 17.9197 183.218 17.7117 182.927 17.7117C182.47 17.7533 181.804 17.7533 181.388 17.7533C178.726 17.7533 176.604 15.5902 176.604 12.9281V1.44739C176.604 1.3642 176.521 1.28101 176.438 1.28101H169.949C169.866 1.28101 169.824 1.3226 169.824 1.4058V12.9281C169.824 19.334 175.024 24.5751 181.388 24.5751C182.012 24.5751 182.678 24.5335 183.26 24.4087C183.343 24.4087 183.385 24.3256 183.385 24.2424V18.2108H183.426Z" fill="black"/>
<path fill-rule="evenodd" clip-rule="evenodd" d="M181.388 1.28149C180.722 1.28149 180.098 1.32309 179.474 1.44788C179.391 1.44788 179.35 1.53107 179.35 1.61427V7.68739C179.35 7.97857 179.558 8.18655 179.849 8.18655C180.098 8.14495 181.388 8.14495 181.388 8.14495C184.05 8.14495 186.171 10.308 186.171 12.9702V23.4526C186.171 23.4942 186.213 23.5358 186.255 23.4942C190.248 21.6639 192.993 17.629 192.993 12.9286C192.993 6.48108 187.794 1.28149 181.388 1.28149Z" fill="black"/>
<path fill-rule="evenodd" clip-rule="evenodd" d="M248.194 7.97583C243.909 7.97583 242.037 10.8876 242.037 14.7977C242.037 18.6662 244.284 20.9956 247.819 20.9956C252.104 20.9956 253.976 18.1254 253.976 14.2569C253.934 10.3884 251.729 7.97583 248.194 7.97583ZM249.608 17.7095C249.15 18.0422 248.61 18.2086 247.861 18.2086C246.447 18.2086 245.573 16.9607 245.573 14.7561C245.573 13.5082 245.823 12.4267 246.239 11.8443C246.696 11.47 247.279 11.3036 247.986 11.3036C249.525 11.3036 250.274 12.5515 250.274 14.3817C250.232 15.7544 250.024 16.9607 249.608 17.7095ZM236.214 13.3002C234.342 12.9674 233.926 12.7594 233.926 12.1771C233.926 11.8859 234.009 11.6363 234.134 11.5115C234.592 11.3452 235.34 11.262 236.089 11.262C237.587 11.262 238.876 11.47 239.958 11.8443V8.89096C239.126 8.47499 237.711 8.05902 235.798 8.05902C232.512 8.05902 230.474 9.5981 230.474 12.2603C230.474 14.7977 231.971 15.588 234.716 16.0872C236.755 16.4616 237.171 16.6695 237.171 17.2935C237.171 17.5847 237.087 17.7927 237.004 17.9174C236.505 18.0838 235.798 18.2086 234.758 18.2086C233.385 18.2086 231.763 17.9174 230.806 17.5847V20.4964C231.846 20.9124 233.427 21.1204 234.883 21.1204C238.377 21.1204 240.623 20.0389 240.623 17.2103C240.623 14.7145 239.167 13.841 236.214 13.3002ZM209.8 12.7179C210.965 12.0523 211.963 10.9292 211.963 9.30692C211.963 6.60314 209.883 5.14725 205.515 5.14725H199.234V20.7876H206.514C210.382 20.7876 212.379 19.2901 212.379 16.3368C212.379 14.3817 211.256 13.3002 209.8 12.7179ZM203.061 8.14222C203.685 8.10062 204.434 8.10062 205.308 8.10062C207.304 8.10062 208.178 8.68297 208.178 10.0141C208.178 10.7628 207.886 11.262 207.221 11.7611C206.68 11.8859 206.098 11.9275 205.349 11.9275C204.476 11.9275 203.685 11.8859 203.061 11.8859V8.14222ZM207.928 18.0422C207.429 18.167 206.597 18.2086 205.89 18.2086C204.725 18.2086 203.768 18.167 203.061 18.167V14.5481H205.765C207.72 14.5481 208.552 15.1305 208.552 16.42C208.51 17.0439 208.302 17.5847 207.928 18.0422ZM214.916 20.7876H218.577V8.22541H214.916V20.7876ZM225.399 5.10566L221.863 5.39683V17.2519C221.863 19.5813 222.945 20.9956 225.607 20.9956C226.73 20.9956 227.645 20.7876 228.435 20.4548V17.5431C227.687 17.8342 227.021 17.959 226.314 17.959C225.69 17.959 225.399 17.6263 225.399 17.0439V11.1372H228.394V8.22541H225.399V5.10566ZM218.618 6.06238V2.94263L214.958 3.2338V6.10398H218.618V6.06238Z" fill="black"/>
</g>
</g>
<g clip-path="url(#clip1_356_14099)">
<path d="M372.865 3.67383C374.551 3.67383 375.979 4.02336 377.148 4.72243C378.317 5.40661 379.19 6.32137 379.768 7.46661C380.344 8.59702 380.633 9.83157 380.633 11.1703C380.633 12.5535 380.329 13.8698 379.723 15.1192C379.131 16.3538 378.221 17.3577 376.993 18.1312C375.765 18.9046 374.27 19.2913 372.509 19.2913H367.582V3.67383H372.865ZM372.532 16.5694C373.671 16.5694 374.633 16.3166 375.417 15.8109C376.201 15.2903 376.778 14.621 377.148 13.8029C377.533 12.9848 377.725 12.1073 377.725 11.1703C377.725 10.3076 377.555 9.5192 377.215 8.80525C376.874 8.07647 376.349 7.49638 375.639 7.06504C374.929 6.61886 374.041 6.39574 372.975 6.39574H370.467V16.5694H372.532Z" fill="#22D081"/>
<path d="M387.187 7.60059C388.297 7.60059 389.281 7.83854 390.139 8.31449C390.997 8.79048 391.663 9.48208 392.137 10.3894C392.625 11.2819 392.869 12.3379 392.869 13.5575C392.869 14.7921 392.625 15.863 392.137 16.7703C391.663 17.6627 390.997 18.3469 390.139 18.8229C389.296 19.2988 388.312 19.5368 387.187 19.5368C386.077 19.5368 385.094 19.2988 384.235 18.8229C383.377 18.3469 382.711 17.6627 382.237 16.7703C381.764 15.863 381.527 14.7921 381.527 13.5575C381.527 12.3379 381.764 11.2819 382.237 10.3894C382.711 9.48208 383.377 8.79048 384.235 8.31449C385.094 7.83854 386.077 7.60059 387.187 7.60059ZM387.165 10.1663C386.277 10.1663 385.582 10.4638 385.079 11.0587C384.59 11.6537 384.346 12.4866 384.346 13.5575C384.346 14.6731 384.605 15.5208 385.123 16.1009C385.656 16.681 386.358 16.971 387.232 16.971C388.119 16.971 388.807 16.6736 389.296 16.0786C389.799 15.4836 390.051 14.6433 390.051 13.5575C390.051 12.442 389.784 11.6016 389.251 11.0364C388.733 10.4563 388.038 10.1663 387.165 10.1663Z" fill="#22D081"/>
<path d="M397.057 19.2911H394.305V3.42822H397.057V19.2911Z" fill="#22D081"/>
<path d="M404.14 7.60059C405.471 7.60059 406.522 7.90549 407.291 8.5153C408.076 9.11027 408.467 10.0473 408.467 11.3265V19.2913H405.782V17.6181C405.368 18.3023 404.835 18.7931 404.184 19.0906C403.548 19.388 402.882 19.5368 402.186 19.5368C401.166 19.5368 400.293 19.2542 399.567 18.6889C398.857 18.1089 398.502 17.2536 398.502 16.1232C398.502 14.1302 399.715 12.9551 402.142 12.5982L404.45 12.2635C405.338 12.1297 405.782 11.728 405.782 11.0587C405.782 10.6572 405.604 10.3597 405.25 10.1663C404.894 9.97291 404.443 9.87624 403.895 9.87624C403.126 9.87624 402.564 10.0324 402.209 10.3448C401.853 10.6423 401.602 11.0513 401.454 11.5719H398.835C399.057 10.263 399.634 9.27385 400.566 8.60455C401.498 7.93521 402.69 7.60059 404.14 7.60059ZM402.897 17.2388C403.725 17.2388 404.399 16.971 404.916 16.4356C405.449 15.9002 405.716 15.2457 405.716 14.4723V13.8476C405.523 13.9219 405.301 13.9889 405.05 14.0483C404.798 14.093 404.532 14.1376 404.251 14.1822L403.097 14.3607C401.868 14.5243 401.254 15.0375 401.254 15.9002C401.254 16.3463 401.402 16.681 401.698 16.9041C401.994 17.1272 402.393 17.2388 402.897 17.2388Z" fill="#22D081"/>
<path d="M417.042 10.3685H416.31C414.328 10.3685 413.336 11.4692 413.336 13.6705V19.2927H410.584V7.8028H413.314V9.49841C413.595 8.88862 413.987 8.43497 414.49 8.13748C415.008 7.82511 415.607 7.66895 416.288 7.66895H417.042V10.3685Z" fill="#22D081"/>
<path d="M427.482 15.8332H420.913L419.625 19.2913H416.562L422.599 3.67383H425.884L431.921 19.2913H428.769L427.482 15.8332ZM426.483 13.1113L424.198 6.95348L421.911 13.1113H426.483Z" fill="#22D081"/>
<path d="M439.377 7.60059C440.324 7.60059 441.175 7.82365 441.93 8.26988C442.699 8.70123 443.306 9.35569 443.75 10.2332C444.208 11.0959 444.437 12.152 444.437 13.4013C444.437 14.7102 444.193 15.8183 443.705 16.7256C443.217 17.6181 442.566 18.2874 441.752 18.7336C440.953 19.1649 440.072 19.3806 439.111 19.3806C438.386 19.3806 437.734 19.2467 437.158 18.979C436.58 18.7113 436.122 18.3543 435.781 17.9081V23.575H433.029V7.80135H435.715V9.63082C435.996 9.00613 436.462 8.5153 437.113 8.15833C437.779 7.78647 438.534 7.60059 439.377 7.60059ZM438.711 16.9264C439.555 16.9264 440.25 16.6364 440.797 16.0563C441.36 15.4762 441.641 14.6359 441.641 13.5352C441.641 12.4197 441.36 11.5719 440.797 10.9918C440.25 10.4117 439.555 10.1217 438.711 10.1217C437.883 10.1217 437.173 10.4117 436.58 10.9918C435.988 11.5719 435.693 12.4197 435.693 13.5352C435.693 14.6359 435.988 15.4762 436.58 16.0563C437.173 16.6364 437.883 16.9264 438.711 16.9264Z" fill="#22D081"/>
<path d="M452.221 7.60059C453.168 7.60059 454.019 7.82365 454.773 8.26988C455.543 8.70123 456.15 9.35569 456.594 10.2332C457.052 11.0959 457.282 12.152 457.282 13.4013C457.282 14.7102 457.038 15.8183 456.549 16.7256C456.061 17.6181 455.41 18.2874 454.596 18.7336C453.797 19.1649 452.917 19.3806 451.955 19.3806C451.23 19.3806 450.579 19.2467 450.001 18.979C449.425 18.7113 448.966 18.3543 448.625 17.9081V23.575H445.873V7.80135H448.559V9.63082C448.84 9.00613 449.306 8.5153 449.957 8.15833C450.623 7.78647 451.378 7.60059 452.221 7.60059ZM451.555 16.9264C452.398 16.9264 453.094 16.6364 453.642 16.0563C454.204 15.4762 454.485 14.6359 454.485 13.5352C454.485 12.4197 454.204 11.5719 453.642 10.9918C453.094 10.4117 452.398 10.1217 451.555 10.1217C450.727 10.1217 450.016 10.4117 449.425 10.9918C448.833 11.5719 448.537 12.4197 448.537 13.5352C448.537 14.6359 448.833 15.4762 449.425 16.0563C450.016 16.6364 450.727 16.9264 451.555 16.9264Z" fill="#22D081"/>
<mask id="mask2_356_14099" style="mask-type:luminance" maskUnits="userSpaceOnUse" x="326" y="0" width="34" height="26">
<path d="M359.299 0H326.934V25.8597H359.299V0Z" fill="white"/>
</mask>
<g mask="url(#mask2_356_14099)">
<path d="M359.283 1.60602C359.283 1.10138 359.135 0.787354 358.405 0.787354C352.581 0.787354 346.612 2.14793 343.626 3.44802V5.71585C346.18 4.55994 349.888 3.63496 353.764 3.19814C353.882 3.95771 354.211 4.66698 354.712 5.24236C355.482 6.13617 356.604 6.39277 357.186 6.46423C357.186 9.45483 357.192 13.0093 357.195 15.827C356.655 15.8826 355.658 16.122 354.727 17.0794C353.74 18.096 353.629 19.4401 353.629 19.9826C346.556 21.1531 342.937 23.3177 342.443 22.7814C341.73 23.4912 340.99 24.2409 341.401 24.7669C342.521 26.2002 345.774 22.5321 358.488 21.557C359.083 21.5112 359.299 21.3126 359.299 20.7628C359.299 20.7603 359.283 6.04882 359.283 1.60602Z" fill="#22D081"/>
<path d="M343.398 1.35622C342.78 0.672581 338.942 -0.385573 327.491 4.29486C327.191 4.41705 326.933 4.73839 326.933 5.09642C326.933 5.09642 326.945 18.1584 326.945 23.509C326.945 24.2275 327.419 24.39 328.049 24.1872C331.684 23.016 336.479 21.0134 340.194 20.7836C342.337 20.651 343.23 20.8185 343.451 21.1563C343.454 21.1618 343.459 21.1659 343.466 21.1681C343.472 21.1703 343.478 21.1704 343.484 21.1685C343.49 21.1666 343.496 21.1627 343.499 21.1574C343.503 21.1521 343.505 21.1457 343.505 21.1392V19.5349C343.505 18.7449 342.084 18.5421 339.92 18.726C337.573 18.9245 334.735 19.6992 332.734 20.3266C332.652 19.8937 332.476 19.4852 332.217 19.1316C331.959 18.778 331.625 18.4885 331.242 18.2849C330.57 17.9129 329.801 17.7634 329.042 17.8572C329.042 14.8172 329.037 11.4759 329.036 8.97346C329.638 8.7291 330.715 8.17923 331.339 7.21641C331.799 6.49454 332.073 5.66623 332.135 4.80805C335.07 3.77861 338.512 2.79194 340.965 2.79194C343.05 2.79194 343.414 3.17501 343.627 3.44626C343.627 2.73757 343.716 1.70935 343.398 1.35622Z" fill="#22D081"/>
<path d="M343.636 7.62572C343.636 7.62572 343.607 6.92621 343.607 6.08246C343.607 5.27174 342.909 4.99074 342.352 4.95711C339.73 4.79764 339.065 8.02098 339.14 10.6127C339.208 12.9593 339.923 14.2514 341.197 15.2119C342.487 16.1839 343.525 15.7043 343.596 18.7553C345.852 18.7419 347.719 15.9022 347.693 12.6923C347.672 9.79397 345.923 7.62206 343.636 7.62572Z" fill="#22D081"/>
</g>
</g>
<g clip-path="url(#clip2_356_14099)">
<mask id="mask3_356_14099" style="mask-type:luminance" maskUnits="userSpaceOnUse" x="530" y="5" width="73" height="16">
<path d="M602.373 5.29346H530.871V20.6154H602.373V5.29346Z" fill="white"/>
</mask>
<g mask="url(#mask3_356_14099)">
<path fill-rule="evenodd" clip-rule="evenodd" d="M585.9 7.4958C586.475 8.16613 586.89 8.96414 587.177 9.82599C587.464 10.7198 587.592 11.6774 587.592 12.6669L587.56 14.4225H577.218C577.25 15.3802 577.569 16.1782 578.143 16.7528C578.75 17.3912 579.835 17.7104 581.048 17.7104C582.006 17.7104 582.836 17.5189 583.41 17.1678C584.017 16.7847 584.528 16.3378 585.006 15.7632L587.017 17.9338C586.379 18.7638 585.549 19.4341 584.464 19.9129C583.378 20.3917 582.07 20.6471 580.633 20.6471C579.516 20.6471 578.431 20.4556 577.537 20.1044C576.643 19.7533 575.909 19.2426 575.271 18.5723C574.664 17.9019 574.185 17.1039 573.834 16.1463C573.483 15.1887 573.323 14.1353 573.323 12.9542C573.323 11.8051 573.483 10.7517 573.802 9.79407C574.121 8.86838 574.6 8.07037 575.175 7.40003C575.781 6.7297 576.515 6.21897 577.409 5.86784C578.303 5.51672 579.356 5.3252 580.474 5.3252C581.655 5.3252 582.772 5.51672 583.634 5.93169C584.623 6.28282 585.326 6.79354 585.9 7.4958ZM577.218 11.4859H584.017V11.422C584.017 10.4006 583.73 9.85792 583.123 9.21951C582.548 8.58109 581.591 8.22997 580.601 8.22997C579.612 8.22997 578.686 8.58109 578.08 9.21951C577.505 9.85792 577.186 10.4006 577.186 11.422L577.218 11.4859ZM552.447 5.6444L550.341 12.9223C550.053 13.8799 549.83 14.8375 549.67 15.8271H549.606C549.575 15.444 549.479 15.061 549.415 14.7098C549.383 14.5502 549.351 14.3906 549.319 14.2629L546.989 5.6444H542.265L539.966 14.2629C539.935 14.3906 539.903 14.5502 539.871 14.7098C539.807 15.061 539.711 15.444 539.679 15.8271H539.615C539.456 14.8375 539.232 13.8799 538.945 12.9223L536.838 5.6444H533.455L534.444 9.0599H530.869V11.5178H535.146L535.849 13.9437H530.869V16.4017H536.551L537.7 20.296H541.722L544.435 10.0175C544.531 9.63447 544.595 9.2195 544.627 8.93222H544.691C544.723 9.2195 544.786 9.63447 544.882 10.0175L547.564 20.296H551.586L555.831 5.6444H552.447ZM561.353 5.6444H557.778V20.296H561.353V5.6444ZM564.066 20.296V5.6444H572.813V8.54917H567.354V20.296H564.066ZM592.731 12.8265L587.496 20.296H591.486L594.71 15.2206H594.838L598.094 20.296H602.371L597.136 12.8904L602.307 5.6444H598.317L595.189 10.4644H595.061L591.901 5.6444H587.624L592.731 12.8265Z" fill="#064032"/>
</g>
</g>
<mask id="mask4_356_14099" style="mask-type:luminance" maskUnits="userSpaceOnUse" x="675" y="3" width="79" height="20">
<path d="M753.933 3.29492H675.283V22.5641H753.933V3.29492Z" fill="white"/>
</mask>
<g mask="url(#mask4_356_14099)">
<path fill-rule="evenodd" clip-rule="evenodd" d="M679.671 17.4566L684.228 8.04366L686.734 13.2141L679.671 17.4566ZM693.872 20.9986L690.666 14.3841L693.789 12.5075L692.188 9.93723L689.34 11.6482L686.219 5.20913C686.028 4.81452 685.737 4.48733 685.377 4.26235C685.014 4.03648 684.597 3.92221 684.172 3.93336C683.746 3.94408 683.335 4.07933 682.983 4.32395C682.647 4.55785 682.379 4.88461 682.206 5.27028L675.953 18.1895L675.938 18.2243C675.522 19.2055 675.797 20.317 676.623 20.991C677.434 21.6526 678.551 21.7088 679.422 21.1388L688.06 15.95L690.507 20.9991L693.872 20.9986ZM698.311 3.93271H695.018V20.979H698.311V3.93271ZM703.612 11.9035H708.503C711.021 11.9035 711.869 10.5835 711.869 9.0947C711.869 7.60586 711.021 6.38179 708.527 6.38179H703.612V11.9035ZM709.133 3.93271C713.83 3.93271 715.331 6.42976 715.331 9.07071C715.331 11.0632 714.29 13.1281 711.481 13.8485L715.912 20.979H712.183L708.067 14.2807H703.612V20.979H700.32V3.93271H709.133ZM716.323 6.57366H722.594V20.979H725.887V6.57366H732.158V3.93271H716.323V6.57366ZM738.519 3.93271H733.652L733.652 20.979H736.63V8.63853C736.63 7.87016 736.582 7.1737 736.509 6.57366H736.606C736.702 7.03027 736.945 7.91857 737.187 8.5666L742.078 20.9794H745.177L750.068 8.5666C750.334 7.9181 750.625 6.95785 750.698 6.57366H750.795C750.722 7.19815 750.673 7.94208 750.673 8.63853V20.979H753.749V3.93271H748.833L744.209 15.817C743.943 16.5369 743.797 16.9691 743.7 17.5456H743.652C743.566 17.0335 743.442 16.654 743.245 16.0529C743.221 15.978 743.195 15.8995 743.168 15.817L738.519 3.93271Z" fill="black"/>
</g>
<g clip-path="url(#clip3_356_14099)">
<path d="M844.043 5.55453C844.026 5.43688 843.926 5.36965 843.842 5.36965C843.758 5.36965 842.094 5.33604 842.094 5.33604C842.094 5.33604 840.7 3.9915 840.566 3.84024C840.431 3.70579 840.162 3.7394 840.062 3.77302C840.062 3.77302 839.793 3.85705 839.356 3.9915C839.289 3.75621 839.171 3.47049 839.02 3.16797C838.533 2.2268 837.794 1.72259 836.92 1.72259C836.853 1.72259 836.802 1.72259 836.735 1.7394C836.702 1.70579 836.685 1.67217 836.651 1.65537C836.265 1.25201 835.778 1.05033 835.19 1.06713C834.064 1.10075 832.938 1.92428 832.014 3.36965C831.376 4.39486 830.889 5.67217 830.738 6.66377C829.444 7.06713 828.537 7.35285 828.503 7.35285C827.848 7.55453 827.831 7.57133 827.747 8.19318C827.714 8.66377 826 21.9243 826 21.9243L840.381 24.4117L846.614 22.8655C846.597 22.8655 844.06 5.67217 844.043 5.55453ZM838.634 4.2268C838.298 4.32764 837.928 4.44528 837.525 4.57974C837.525 4.00831 837.441 3.20159 837.189 2.52932C838.046 2.66377 838.466 3.63856 838.634 4.2268ZM836.769 4.79823C836.013 5.03352 835.19 5.28562 834.366 5.53772C834.602 4.64696 835.038 3.77302 835.576 3.18478C835.778 2.96629 836.063 2.731 836.382 2.59654C836.718 3.25201 836.786 4.17638 836.769 4.79823ZM835.223 1.82344C835.492 1.82344 835.71 1.87386 835.895 2.00831C835.593 2.15957 835.29 2.39486 835.022 2.69738C834.299 3.47049 833.745 4.66377 833.526 5.82344C832.838 6.04192 832.166 6.2436 831.561 6.42848C831.964 4.59654 833.493 1.87386 835.223 1.82344Z" fill="#95BF47"/>
<path d="M843.842 5.36955C843.758 5.36955 842.094 5.33594 842.094 5.33594C842.094 5.33594 840.7 3.9914 840.566 3.84014C840.515 3.78972 840.448 3.7561 840.381 3.7561V24.4116L846.614 22.8653C846.614 22.8653 844.077 5.67207 844.06 5.55442C844.026 5.43678 843.926 5.36955 843.842 5.36955Z" fill="#5E8E3E"/>
<path d="M836.92 8.5797L836.197 11.2856C836.197 11.2856 835.391 10.9158 834.433 10.9831C833.022 11.0671 833.022 11.9579 833.022 12.1763C833.106 13.3864 836.281 13.6553 836.466 16.4957C836.6 18.731 835.29 20.2604 833.375 20.378C831.09 20.4957 829.83 19.1511 829.83 19.1511L830.317 17.0839C830.317 17.0839 831.594 18.0419 832.602 17.9747C833.257 17.941 833.509 17.3864 833.476 17.0167C833.375 15.4368 830.788 15.5377 830.62 12.9326C830.485 10.7478 831.913 8.54609 835.072 8.34441C836.298 8.26038 836.92 8.5797 836.92 8.5797Z" fill="white"/>
<path d="M855.046 14.3445C854.324 13.9579 853.954 13.6218 853.954 13.168C853.954 12.5966 854.475 12.2268 855.281 12.2268C856.222 12.2268 857.062 12.6134 857.062 12.6134L857.717 10.5966C857.717 10.5966 857.113 10.126 855.332 10.126C852.845 10.126 851.115 11.5545 851.115 13.5545C851.115 14.6974 851.921 15.5545 852.997 16.1764C853.87 16.6638 854.173 17.0167 854.173 17.5377C854.173 18.0756 853.736 18.5125 852.929 18.5125C851.737 18.5125 850.594 17.8907 850.594 17.8907L849.889 19.9075C849.889 19.9075 850.93 20.6134 852.694 20.6134C855.248 20.6134 857.096 19.3529 857.096 17.084C857.079 15.8571 856.155 14.9831 855.046 14.3445Z" fill="black"/>
<path d="M865.228 10.0923C863.968 10.0923 862.977 10.6973 862.221 11.6049L862.187 11.5881L863.279 5.87378H860.44L857.668 20.4284H860.507L861.448 15.4536C861.818 13.5713 862.792 12.4116 863.699 12.4116C864.338 12.4116 864.59 12.8486 864.59 13.4704C864.59 13.857 864.556 14.3444 864.472 14.7309L863.397 20.4284H866.236L867.345 14.546C867.462 13.9242 867.546 13.1847 867.546 12.6805C867.563 11.0671 866.723 10.0923 865.228 10.0923Z" fill="black"/>
<path d="M873.996 10.0925C870.569 10.0925 868.301 13.185 868.301 16.6303C868.301 18.832 869.662 20.6135 872.215 20.6135C875.575 20.6135 877.843 17.6051 877.843 14.0757C877.86 12.0421 876.667 10.0925 873.996 10.0925ZM872.602 18.4455C871.627 18.4455 871.224 17.6219 871.224 16.5799C871.224 14.9497 872.064 12.2942 873.61 12.2942C874.618 12.2942 874.954 13.1682 874.954 14.0085C874.954 15.7564 874.097 18.4455 872.602 18.4455Z" fill="black"/>
<path d="M885.136 10.0925C883.221 10.0925 882.129 11.79 882.129 11.79H882.095L882.263 10.2606H879.743C879.625 11.2858 879.39 12.8656 879.172 14.0421L877.189 24.4623H880.029L880.818 20.2438H880.885C880.885 20.2438 881.473 20.6135 882.549 20.6135C885.892 20.6135 888.076 17.185 888.076 13.7228C888.076 11.8068 887.219 10.0925 885.136 10.0925ZM882.414 18.4791C881.675 18.4791 881.238 18.0589 881.238 18.0589L881.709 15.4035C882.045 13.6219 882.969 12.4455 883.96 12.4455C884.833 12.4455 885.102 13.2522 885.102 14.0085C885.102 15.8572 884.01 18.4791 882.414 18.4791Z" fill="black"/>
<path d="M892.141 6.00854C891.234 6.00854 890.512 6.73123 890.512 7.6556C890.512 8.49594 891.049 9.08417 891.856 9.08417H891.889C892.78 9.08417 893.536 8.47913 893.553 7.43712C893.553 6.61359 892.998 6.00854 892.141 6.00854Z" fill="black"/>
<path d="M888.158 20.4119H890.997L892.929 10.3279H890.073L888.158 20.4119Z" fill="black"/>
<path d="M900.171 10.3108H898.189L898.29 9.84019C898.458 8.8654 899.029 8.00825 899.986 8.00825C900.49 8.00825 900.894 8.15951 900.894 8.15951L901.448 5.92422C901.448 5.92422 900.961 5.67212 899.902 5.67212C898.894 5.67212 897.886 5.95783 897.114 6.6133C896.139 7.43683 895.686 8.6301 895.467 9.84019L895.383 10.3108H894.056L893.636 12.462H894.963L893.451 20.4284H896.29L897.802 12.462H899.768L900.171 10.3108Z" fill="black"/>
<path d="M907.025 10.3279C907.025 10.3279 905.244 14.8153 904.454 17.2691H904.421C904.37 16.4791 903.715 10.3279 903.715 10.3279H900.725L902.438 19.5884C902.472 19.7901 902.455 19.9245 902.371 20.059C902.035 20.6976 901.481 21.3195 900.826 21.7733C900.288 22.1598 899.683 22.4119 899.213 22.58L900.002 25.0001C900.574 24.8825 901.783 24.3951 902.791 23.4539C904.085 22.2438 905.294 20.3615 906.521 17.8069L909.998 10.3279H907.025Z" fill="black"/>
</g>
<g clip-path="url(#clip4_356_14099)">
<mask id="mask5_356_14099" style="mask-type:luminance" maskUnits="userSpaceOnUse" x="982" y="4" width="72" height="18">
<path d="M1053.2 4.53613H982.879V21.3732H1053.2V4.53613Z" fill="white"/>
</mask>
<g mask="url(#mask5_356_14099)">
<path d="M982.879 15.0082V14.9632C982.879 10.9748 985.364 8.54989 988.256 8.54989C988.975 8.53535 989.688 8.68721 990.338 8.99362C990.989 9.30003 991.56 9.75269 992.007 10.3162V4.53882H996.299V21.0808H992.007V19.4491C991.584 20.0431 991.025 20.5263 990.376 20.8576C989.727 21.189 989.007 21.3586 988.279 21.3521C985.387 21.3531 982.879 18.9282 982.879 15.0082ZM992.075 14.9632V14.9181C992.075 13.3087 990.968 12.1539 989.59 12.1539C988.212 12.1539 987.082 13.2869 987.082 14.9181V14.9632C987.082 16.5948 988.212 17.7501 989.59 17.7501C990.968 17.7501 992.074 16.5948 992.074 14.9632H992.075Z" fill="black"/>
<path d="M996.676 17.5686V17.5235C996.676 14.9857 998.596 13.6714 1001.47 13.6714C1002.46 13.6722 1003.46 13.8327 1004.4 14.1468V13.9433C1004.4 12.6741 1003.61 11.9491 1001.96 11.9491C1000.81 11.9468 999.661 12.178 998.595 12.629L997.714 9.59249C999.28 8.93571 1000.96 8.61159 1002.66 8.64072C1004.85 8.64072 1006.35 9.16216 1007.32 10.1362C1008.24 11.0424 1008.63 12.3116 1008.63 14.0339V21.081H1004.38V19.8118C1003.93 20.3167 1003.38 20.7165 1002.76 20.983C1002.13 21.2494 1001.46 21.3758 1000.79 21.3534C998.461 21.3529 996.676 20.0163 996.676 17.5686ZM1004.45 16.6381V16.0731C1003.92 15.8618 1003.35 15.7542 1002.78 15.7562C1001.53 15.7562 1000.81 16.3683 1000.81 17.2745V17.3195C1000.81 18.1579 1001.44 18.6565 1002.32 18.6565C1002.6 18.6786 1002.88 18.6424 1003.14 18.5503C1003.4 18.4581 1003.64 18.312 1003.84 18.1216C1004.04 17.9311 1004.2 17.7006 1004.3 17.445C1004.41 17.1894 1004.46 16.9145 1004.45 16.6381Z" fill="black"/>
<path d="M1009.14 4.53833H1013.43V12.923L1016.75 8.82126H1021.61L1017.36 13.7385L1021.72 21.0802H1017L1014.54 16.9107L1013.43 18.2022V21.0802H1009.14V4.53833Z" fill="black"/>
<path d="M1019.5 15.0093V14.9643C1019.5 11.4746 1022.34 8.55103 1026.27 8.55103C1030.18 8.55103 1033.01 11.4286 1033.01 14.9187V14.9638C1033.01 18.4534 1030.16 21.377 1026.23 21.377C1022.32 21.3765 1019.5 18.499 1019.5 15.0093ZM1028.83 15.0093V14.9643C1028.86 14.2612 1028.61 13.5752 1028.13 13.0571C1027.65 12.539 1026.99 12.2313 1026.29 12.2016H1026.23C1025.88 12.2024 1025.53 12.2746 1025.21 12.4137C1024.89 12.5528 1024.61 12.7559 1024.37 13.0105C1024.13 13.2651 1023.94 13.5659 1023.82 13.8943C1023.71 14.2228 1023.66 14.5721 1023.68 14.9207V14.9658C1023.65 15.6689 1023.9 16.3549 1024.37 16.873C1024.85 17.391 1025.51 17.6987 1026.22 17.7285H1026.27C1026.62 17.7275 1026.97 17.6552 1027.29 17.516C1027.61 17.3769 1027.9 17.1738 1028.14 16.9192C1028.38 16.6646 1028.56 16.3639 1028.68 16.0355C1028.8 15.7071 1028.85 15.3579 1028.83 15.0093Z" fill="black"/>
<path d="M1033.87 17.2738V12.2892H1032.43V8.82284H1033.87V5.71997H1038.17V8.82433H1041.01V12.2907H1038.17V16.4344C1038.17 17.2956 1038.55 17.658 1039.34 17.658C1039.91 17.6468 1040.46 17.508 1040.97 17.252V20.6272C1040.05 21.111 1039.02 21.3528 1037.98 21.3299C1035.41 21.3299 1033.87 20.1974 1033.87 17.2738Z" fill="black"/>
<path d="M1041.25 17.5686V17.5235C1041.25 14.9857 1043.17 13.6714 1046.04 13.6714C1047.03 13.6724 1048.03 13.8329 1048.97 14.1468V13.9432C1048.97 12.6741 1048.18 11.9491 1046.53 11.9491C1045.38 11.9468 1044.23 12.178 1043.16 12.629L1042.28 9.59247C1043.85 8.93574 1045.53 8.61163 1047.23 8.64071C1049.42 8.64071 1050.91 9.16215 1051.89 10.1362C1052.81 11.0424 1053.2 12.3116 1053.2 14.0339V21.081H1048.95V19.8118C1048.5 20.3168 1047.95 20.7166 1047.33 20.9831C1046.71 21.2495 1046.03 21.3759 1045.36 21.3534C1043.03 21.3529 1041.25 20.0163 1041.25 17.5686ZM1049.02 16.6381V16.0731C1048.49 15.8618 1047.92 15.7542 1047.35 15.7562C1046.11 15.7562 1045.38 16.3682 1045.38 17.2745V17.3195C1045.38 18.1579 1046.02 18.6565 1046.9 18.6565C1047.17 18.6784 1047.45 18.6419 1047.71 18.5496C1047.97 18.4573 1048.21 18.3112 1048.41 18.1208C1048.61 17.9304 1048.77 17.6999 1048.87 17.4445C1048.98 17.189 1049.03 16.9143 1049.02 16.6381H1049.02Z" fill="black"/>
<path d="M1019.5 15.0068V14.9617C1019.5 11.472 1022.34 8.54842 1026.27 8.54842C1027.55 8.51121 1028.81 8.84268 1029.9 9.50304C1030.99 10.1634 1031.87 11.1246 1032.43 12.2713V8.82028H1033.87V5.71691H1038.16V8.82128H1041.01V12.2876H1038.16V16.4309C1038.16 17.2921 1038.55 17.6541 1039.34 17.6541C1039.9 17.6429 1040.46 17.5042 1040.96 17.2485V20.6237C1040.05 21.1074 1039.02 21.3493 1037.98 21.3264C1035.41 21.3264 1033.87 20.1944 1033.87 17.2708V12.2876H1032.43C1032.81 13.1116 1033.01 14.0086 1033.01 14.9161V14.9612C1033.01 18.4523 1030.16 21.374 1026.23 21.374C1022.32 21.374 1019.5 18.4964 1019.5 15.0068ZM1023.68 14.9166V14.9617C1023.65 15.6648 1023.9 16.3508 1024.37 16.8689C1024.85 17.387 1025.51 17.6947 1026.22 17.7244H1026.27C1026.62 17.7235 1026.97 17.6512 1027.29 17.5121C1027.61 17.3729 1027.9 17.1698 1028.14 16.9151C1028.38 16.6605 1028.56 16.3597 1028.68 16.0312C1028.8 15.7027 1028.85 15.3534 1028.83 15.0048V14.9597C1028.86 14.2566 1028.61 13.5706 1028.13 13.0525C1027.65 12.5344 1026.99 12.2267 1026.29 12.197H1026.23C1025.88 12.198 1025.53 12.2703 1025.21 12.4095C1024.89 12.5487 1024.61 12.7518 1024.37 13.0064C1024.13 13.2611 1023.94 13.5618 1023.82 13.8903C1023.71 14.2188 1023.66 14.568 1023.68 14.9166ZM1045.36 21.3542C1043.03 21.3542 1041.25 20.0171 1041.25 17.5699V17.5248C1041.25 14.987 1043.17 13.6727 1046.04 13.6727C1047.04 13.6736 1048.03 13.8339 1048.97 14.1476V13.944C1048.97 12.6749 1048.18 11.9494 1046.53 11.9494C1045.38 11.9472 1044.23 12.1784 1043.17 12.6293L1042.29 9.59279C1043.85 8.93608 1045.54 8.61197 1047.23 8.64102C1049.42 8.64102 1050.92 9.16246 1051.89 10.1365C1052.81 11.0407 1053.2 12.3119 1053.2 14.0322V21.0798H1048.95V19.8106C1048.52 20.2959 1047.99 20.6844 1047.4 20.9505C1046.8 21.2167 1046.16 21.3544 1045.51 21.3546C1045.46 21.3542 1045.41 21.3532 1045.36 21.3517V21.3542ZM1045.38 17.2757V17.3208C1045.38 18.1592 1046.01 18.6578 1046.89 18.6578C1047.17 18.6799 1047.45 18.6437 1047.71 18.5515C1047.97 18.4594 1048.21 18.3133 1048.41 18.1228C1048.61 17.9324 1048.76 17.7019 1048.87 17.4463C1048.98 17.1907 1049.03 16.9158 1049.02 16.6394V16.0714C1048.49 15.862 1047.93 15.7545 1047.36 15.7545H1047.35C1046.1 15.755 1045.38 16.3666 1045.38 17.2733V17.2757ZM1000.79 21.3542C998.461 21.3542 996.678 20.0171 996.678 17.5699V17.5248C996.678 14.987 998.599 13.6727 1001.47 13.6727C1002.47 13.6733 1003.46 13.8336 1004.41 14.1476V13.944C1004.41 12.6749 1003.61 11.9494 1001.96 11.9494C1000.81 11.9471 999.663 12.1784 998.598 12.6293L997.717 9.59279C999.282 8.9361 1000.97 8.61199 1002.66 8.64102C1004.86 8.64102 1006.35 9.16246 1007.32 10.1365C1008.24 11.0407 1008.63 12.3119 1008.63 14.0322V21.0798H1004.38V19.8106C1003.95 20.296 1003.42 20.6845 1002.83 20.9507C1002.23 21.2168 1001.59 21.3545 1000.94 21.3546C1000.89 21.3542 1000.84 21.3532 1000.79 21.3517V21.3542ZM1000.81 17.2757V17.3208C1000.81 18.1592 1001.44 18.6578 1002.32 18.6578C1002.6 18.6799 1002.88 18.6436 1003.14 18.5514C1003.4 18.4592 1003.64 18.3131 1003.84 18.1227C1004.04 17.9322 1004.19 17.7017 1004.3 17.4462C1004.41 17.1906 1004.46 16.9157 1004.45 16.6394V16.0714C1003.92 15.862 1003.36 15.7545 1002.79 15.7545H1002.78C1001.53 15.755 1000.81 16.3666 1000.81 17.2733V17.2757ZM982.879 15.0068V14.9617C982.879 10.9749 985.365 8.54842 988.256 8.54842C988.975 8.53402 989.688 8.68599 990.338 8.99248C990.989 9.29897 991.56 9.75168 992.007 10.3153V4.53735H996.3V21.0798H992.007V19.4482C991.584 20.0423 991.025 20.5257 990.376 20.8571C989.727 21.1885 989.007 21.3582 988.278 21.3517C985.387 21.3517 982.879 18.9272 982.879 15.0068ZM987.082 14.9166V14.9617C987.082 16.5934 988.212 17.7487 989.59 17.7487C990.968 17.7487 992.074 16.5929 992.074 14.9617V14.9166C992.074 13.3072 990.967 12.1519 989.589 12.1519C988.211 12.1519 987.082 13.2849 987.082 14.9166ZM1017 21.0798L1014.54 16.9103L1013.43 18.2018V21.0798H1009.13V4.53735H1013.43V12.922L1016.75 8.82028H1021.61L1017.36 13.7376L1021.72 21.0798H1017Z" fill="black"/>
</g>
</g>
<g clip-path="url(#clip5_356_14099)">
<mask id="mask6_356_14099" style="mask-type:luminance" maskUnits="userSpaceOnUse" x="1126" y="1" width="106" height="24">
<path d="M1232 1H1126V25H1232V1Z" fill="white"/>
</mask>
<g mask="url(#mask6_356_14099)">
<path d="M1200.74 7.47266H1197.57C1197.44 7.47266 1197.34 7.57669 1197.34 7.7044V17.4927C1197.34 17.6204 1197.44 17.7244 1197.57 17.7244H1200.74C1200.87 17.7244 1200.97 17.6209 1200.97 17.4927V7.7044C1200.97 7.57669 1200.87 7.47266 1200.74 7.47266Z" fill="#2C415A"/>
<path d="M1214.89 4.46411H1211.72C1211.59 4.46411 1211.49 4.5676 1211.49 4.69585V17.4929C1211.49 17.6206 1211.59 17.7247 1211.72 17.7247H1214.89C1215.02 17.7247 1215.12 17.6206 1215.12 17.4929V4.6964C1215.12 4.56815 1215.02 4.46466 1214.89 4.46466" fill="#2C415A"/>
<path d="M1199.15 2.47656C1198.04 2.47656 1197.14 3.36665 1197.14 4.46427C1197.14 5.56188 1198.04 6.45253 1199.15 6.45253C1200.26 6.45253 1201.16 5.56188 1201.16 4.46427C1201.16 3.36665 1200.26 2.47656 1199.15 2.47656Z" fill="#2C415A"/>
<path d="M1227.51 8.75913V7.70831C1227.51 7.58005 1227.41 7.47656 1227.28 7.47656H1224.11C1223.98 7.47656 1223.88 7.58005 1223.88 7.70831V13.0456C1223.88 14.1635 1223.26 14.7503 1222.4 14.7503C1221.54 14.7503 1220.99 14.1635 1220.99 13.0456V7.70831C1220.99 7.58005 1220.88 7.47656 1220.75 7.47656H1217.59C1217.46 7.47656 1217.35 7.58005 1217.35 7.70831V13.0456C1217.35 15.1505 1217.66 16.149 1218.02 16.6213C1218.64 17.447 1219.57 17.9518 1220.8 17.9518C1221.9 17.9518 1222.66 17.4426 1223.34 16.9164C1223.55 16.7496 1223.87 16.6533 1223.87 17.1096V18.0234C1223.85 18.636 1223.45 19.1556 1222.94 19.4287C1222.93 19.4347 1222.92 19.4408 1222.91 19.4468C1222.66 19.5707 1222.39 19.6434 1222.09 19.6351C1222.09 19.6351 1221.39 19.629 1221.02 19.5663C1220.88 19.5432 1220.75 19.6323 1220.74 19.7727L1220.5 22.4821C1220.49 22.6037 1220.58 22.7155 1220.7 22.7347C1221.89 22.9191 1223.14 22.8823 1224.47 22.4314C1226.56 21.7197 1227.51 20.1823 1227.51 17.9567V8.77124C1227.51 8.76849 1227.51 8.76298 1227.51 8.75968" fill="#2C415A"/>
<path d="M1209.23 7.4731H1207.8C1207.67 7.4731 1207.57 7.36906 1207.57 7.24136V4.69659C1207.57 4.56888 1207.46 4.46484 1207.33 4.46484H1204.17C1204.04 4.46484 1203.93 4.56888 1203.93 4.69659V7.24081C1203.93 7.36851 1203.83 7.4731 1203.7 7.4731H1202.71C1202.58 7.4731 1202.48 7.57659 1202.48 7.70484V10.3955C1202.48 10.5237 1202.58 10.6272 1202.71 10.6272H1203.7C1203.83 10.6272 1203.93 10.7307 1203.93 10.859V15.3017C1203.93 16.7654 1204.95 17.9522 1206.61 17.9522C1207.82 17.9522 1208.87 17.7639 1209.3 17.5575C1209.39 17.5118 1209.46 17.4364 1209.46 17.3351V15.1581C1209.46 15.0155 1209.33 14.9081 1209.19 14.9291C1208.67 15.0067 1207.57 15.2434 1207.57 13.8672V10.859C1207.57 10.7307 1207.67 10.6272 1207.8 10.6272H1209.23C1209.36 10.6272 1209.46 10.5237 1209.46 10.3955V7.70484C1209.46 7.57659 1209.36 7.4731 1209.23 7.4731Z" fill="#2C415A"/>
<path d="M1153.65 4.68481C1153.65 4.5571 1153.75 4.45361 1153.88 4.45361H1159.96C1162 4.45361 1163.41 4.9826 1164.31 5.88976C1165.09 6.64499 1165.49 7.66554 1165.49 8.96903V9.00646C1165.49 10.9243 1164.51 12.2299 1163 12.9554C1162.87 13.0171 1162.82 13.1745 1162.9 13.2918L1165.68 17.3151C1165.79 17.4687 1165.68 17.6773 1165.49 17.6773H1161.83C1161.72 17.6773 1161.62 17.625 1161.57 17.5386L1159.09 13.8494C1159.01 13.7387 1158.89 13.6727 1158.75 13.6727H1157.58C1157.45 13.6727 1157.35 13.7762 1157.35 13.9033V17.4461C1157.35 17.5738 1157.24 17.6773 1157.11 17.6773H1153.88C1153.75 17.6773 1153.65 17.5738 1153.65 17.4461V4.68481H1153.65ZM1159.79 10.801C1161.05 10.801 1161.77 10.1965 1161.77 9.23325V9.19526C1161.77 8.15655 1161.01 7.62756 1159.77 7.62756H1157.58C1157.45 7.62756 1157.35 7.73104 1157.35 7.85875V10.5698C1157.35 10.6975 1157.45 10.801 1157.58 10.801H1159.79Z" fill="#2C415A"/>
<path d="M1171.6 7.26758C1168.37 7.26758 1166.38 9.77106 1166.38 12.7221C1166.38 15.6731 1168.57 17.952 1171.6 17.952C1174.31 17.952 1175.92 16.7828 1176.65 15.0357C1176.71 14.8848 1176.59 14.718 1176.43 14.718H1173.66C1173.55 14.718 1173.44 14.767 1173.36 14.8468C1173.01 15.2157 1172.56 15.4557 1171.92 15.4557C1171.92 15.4557 1171.92 15.4546 1171.92 15.4546L1171.92 15.4557C1170.74 15.4557 1169.81 14.8468 1169.81 13.8456C1169.81 13.7184 1169.91 13.6149 1170.04 13.6149H1170.05L1176.68 13.6144C1176.81 13.6144 1176.91 13.5103 1176.91 13.3821V12.7221C1176.91 9.77161 1175.07 7.26758 1171.6 7.26758ZM1173.61 11.4868C1173.61 11.614 1173.51 11.7169 1173.39 11.7169H1170.15C1170.03 11.7169 1169.93 11.614 1169.93 11.4868C1169.93 10.4845 1170.73 9.69455 1171.75 9.69455C1172.86 9.69455 1173.61 10.4845 1173.61 11.4863V11.4868Z" fill="#2C415A"/>
<path d="M1191.54 7.24902C1190.12 7.24902 1189.1 7.8171 1188.24 8.73361C1188.16 8.82058 1188.02 8.80792 1187.95 8.70719C1187.37 7.77636 1186.37 7.24902 1185.09 7.24902C1185.04 7.24902 1185 7.24902 1184.95 7.25012C1183.89 7.28976 1182.95 7.78627 1182.33 8.5404C1182.22 8.67196 1182.01 8.5993 1182.01 8.43031V7.7004C1182.01 7.57655 1181.91 7.47636 1181.78 7.47636H1178.61C1178.48 7.47636 1178.38 7.57985 1178.38 7.70811V17.4931C1178.38 17.6213 1178.48 17.7248 1178.61 17.7248H1181.78C1181.9 17.7248 1182.01 17.6213 1182.01 17.4931V12.1558C1182.01 11.0378 1182.62 10.4505 1183.48 10.4505C1184.34 10.4505 1184.9 11.0373 1184.9 12.1558V17.4931C1184.9 17.6213 1185 17.7248 1185.13 17.7248H1188.3C1188.43 17.7248 1188.53 17.6213 1188.53 17.4931V12.1558C1188.53 11.0378 1189.16 10.4505 1190.02 10.4505C1190.89 10.4505 1191.44 11.0373 1191.44 12.1558V17.4931C1191.44 17.6213 1191.54 17.7248 1191.67 17.7248H1194.84C1194.97 17.7248 1195.07 17.6213 1195.07 17.4931V10.9998C1195.07 8.61306 1193.74 7.24902 1191.54 7.24902" fill="#2C415A"/>
<path d="M1146.08 1.20422C1145.95 1.07321 1145.77 1 1145.59 1H1126.7C1126.31 1 1126 1.31266 1126 1.69798V17.6051C1126 17.8286 1126.11 18.0383 1126.29 18.1699L1135.37 24.7501C1135.83 25.0826 1136.46 25.0826 1136.92 24.7501L1146 18.1721C1146.18 18.04 1146.29 17.8303 1146.29 17.6068V1.69908C1146.29 1.51358 1146.22 1.33578 1146.08 1.20477M1143.88 2.39706L1140.34 4.96275C1140.23 5.04092 1140.08 5.04862 1139.97 4.97541C1138.53 4.03908 1136.65 3.99835 1135.16 4.90275C1135.12 4.92257 1135.07 4.94679 1135.03 4.97706L1133.5 6.08569L1128.41 2.39706H1143.88ZM1144.79 16.5675L1144.78 16.6429C1144.75 16.8086 1144.64 17.047 1144.52 17.162C1144.2 17.4659 1143.73 17.4901 1143.39 17.2429L1139.53 14.4461L1139.5 14.4262C1139.27 14.2567 1138.89 14.2583 1138.67 14.4543C1138.36 14.7389 1138.4 15.2156 1138.73 15.449L1138.77 15.4831L1142.31 18.0461C1142.51 18.1892 1142.65 18.4 1142.69 18.6411C1142.73 18.9736 1142.6 19.2868 1142.34 19.4783L1142.25 19.5372C1141.95 19.7602 1141.53 19.7602 1141.22 19.5372L1136.83 16.3589C1136.6 16.1899 1136.21 16.1916 1136 16.387C1135.69 16.6721 1135.73 17.1483 1136.06 17.3817L1139.64 19.9787C1139.84 20.1218 1139.98 20.3332 1140.02 20.5743C1140.06 20.9079 1139.93 21.2194 1139.67 21.4121L1139.58 21.471C1139.28 21.6939 1138.86 21.6939 1138.55 21.471L1137.75 20.8919L1134.16 18.2927C1133.93 18.1231 1133.54 18.1259 1133.33 18.3213C1133.02 18.6059 1133.06 19.0826 1133.39 19.316L1136.97 21.913C1137.17 22.0556 1137.31 22.267 1137.35 22.5075C1137.39 22.8411 1137.26 23.1538 1137 23.3453L1136.92 23.4026C1136.64 23.6018 1136.28 23.6233 1135.99 23.4659L1127.4 17.249V3.39725L1131.13 6.09835L1132.31 6.94936L1130.18 8.49229C1129.67 8.86 1129.34 9.40385 1129.24 10.0226C1129.14 10.6407 1129.29 11.2605 1129.66 11.7681C1130.03 12.275 1130.57 12.6075 1131.19 12.7061C1131.32 12.7259 1131.44 12.7352 1131.57 12.7352C1132.06 12.7352 1132.54 12.5811 1132.95 12.2866L1135.93 10.1294C1136.16 9.96147 1136.47 9.96147 1136.7 10.1294L1144.52 15.7919C1144.73 15.9884 1144.83 16.2758 1144.79 16.567M1144.89 14.3299L1136.98 8.60514C1136.58 8.3167 1136.04 8.3167 1135.64 8.60514L1132.12 11.156C1131.91 11.3046 1131.66 11.3651 1131.41 11.3255C1131.16 11.2859 1130.94 11.1516 1130.79 10.9462C1130.64 10.7415 1130.58 10.491 1130.62 10.2411C1130.66 9.99119 1130.8 9.77156 1131 9.62239L1133.5 7.81358H1133.5L1135.68 6.23872C1136.89 5.35853 1138.57 5.46752 1139.65 6.49963C1139.89 6.72807 1140.27 6.74238 1140.54 6.54752L1144.89 3.3978V14.3305L1144.89 14.3299Z" fill="#2C415A"/>
<path d="M1229.37 9.325H1229.13V7.69509H1228.61V7.47656H1229.89V7.69509H1229.37V9.325H1229.37ZM1231.76 7.79583L1231.13 9.325H1231.06L1230.43 7.79583V9.325H1230.19V7.47656H1230.56L1231.1 8.82078L1231.64 7.47656H1232V9.325H1231.76V7.79583Z" fill="#2C415A"/>
</g>
</g>
<defs>
<clipPath id="clip0_356_14099">
<rect width="85" height="24" fill="white" transform="translate(169 1)"/>
</clipPath>
<clipPath id="clip1_356_14099">
<rect width="132" height="26" fill="white" transform="translate(326)"/>
</clipPath>
<clipPath id="clip2_356_14099">
<rect width="73" height="16" fill="white" transform="translate(530 5)"/>
</clipPath>
<clipPath id="clip3_356_14099">
<rect width="84" height="24" fill="white" transform="translate(826 1)"/>
</clipPath>
<clipPath id="clip4_356_14099">
<rect width="72" height="18" fill="white" transform="translate(982 4)"/>
</clipPath>
<clipPath id="clip5_356_14099">
<rect width="106" height="24" fill="white" transform="translate(1126 1)"/>
</clipPath>
</defs>
</svg>
