<svg width="155" height="31" viewBox="0 0 155 31" fill="none" xmlns="http://www.w3.org/2000/svg">
<path d="M14.8865 2.9644C14.9431 2.85004 15.0306 2.75377 15.139 2.68647C15.2474 2.61916 15.3724 2.5835 15.5 2.5835C15.6277 2.5835 15.7527 2.61916 15.8611 2.68647C15.9695 2.75377 16.057 2.85004 16.1136 2.9644L19.0973 9.00811C19.2939 9.4059 19.5841 9.75005 19.9429 10.011C20.3017 10.272 20.7185 10.442 21.1575 10.5064L27.8303 11.4829C27.9567 11.5013 28.0755 11.5546 28.1732 11.6369C28.2709 11.7192 28.3436 11.8272 28.3832 11.9487C28.4227 12.0702 28.4274 12.2003 28.3968 12.3244C28.3662 12.4484 28.3015 12.5614 28.21 12.6506L23.3844 17.3497C23.0661 17.6598 22.828 18.0426 22.6905 18.4652C22.5531 18.8878 22.5203 19.3374 22.5952 19.7754L23.7344 26.4146C23.7567 26.541 23.7431 26.6711 23.695 26.7901C23.647 26.9091 23.5664 27.0121 23.4626 27.0876C23.3588 27.163 23.2358 27.2077 23.1078 27.2166C22.9798 27.2255 22.8518 27.1982 22.7385 27.1379L16.7736 24.0018C16.3806 23.7954 15.9433 23.6876 15.4994 23.6876C15.0555 23.6876 14.6182 23.7954 14.2252 24.0018L8.26155 27.1379C8.14831 27.1979 8.02052 27.2249 7.89271 27.2158C7.76491 27.2067 7.64222 27.1619 7.53859 27.0866C7.43497 27.0112 7.35458 26.9083 7.30656 26.7895C7.25854 26.6707 7.24482 26.5408 7.26696 26.4146L8.40492 19.7767C8.48009 19.3385 8.44753 18.8886 8.31003 18.4658C8.17254 18.0429 7.93425 17.6599 7.61571 17.3497L2.79005 12.6519C2.69781 12.5628 2.63245 12.4496 2.60141 12.3252C2.57037 12.2008 2.5749 12.0702 2.61448 11.9482C2.65406 11.8262 2.7271 11.7178 2.82528 11.6353C2.92346 11.5529 3.04283 11.4996 3.1698 11.4817L9.84125 10.5064C10.2808 10.4425 10.6981 10.2727 11.0575 10.0117C11.4168 9.75071 11.7073 9.40629 11.904 9.00811L14.8865 2.9644Z" fill="#FFC72C"/>
<path d="M45.8865 2.9644C45.9431 2.85004 46.0306 2.75377 46.139 2.68647C46.2474 2.61916 46.3724 2.5835 46.5 2.5835C46.6277 2.5835 46.7527 2.61916 46.8611 2.68647C46.9695 2.75377 47.057 2.85004 47.1136 2.9644L50.0973 9.00811C50.2939 9.4059 50.5841 9.75005 50.9429 10.011C51.3017 10.272 51.7185 10.442 52.1575 10.5064L58.8303 11.4829C58.9567 11.5013 59.0755 11.5546 59.1732 11.6369C59.2709 11.7192 59.3436 11.8272 59.3832 11.9487C59.4227 12.0702 59.4274 12.2003 59.3968 12.3244C59.3662 12.4484 59.3015 12.5614 59.21 12.6506L54.3844 17.3497C54.0661 17.6598 53.828 18.0426 53.6905 18.4652C53.5531 18.8878 53.5203 19.3374 53.5952 19.7754L54.7344 26.4146C54.7567 26.541 54.7431 26.6711 54.695 26.7901C54.647 26.9091 54.5664 27.0121 54.4626 27.0876C54.3588 27.163 54.2358 27.2077 54.1078 27.2166C53.9798 27.2255 53.8518 27.1982 53.7385 27.1379L47.7736 24.0018C47.3806 23.7954 46.9433 23.6876 46.4994 23.6876C46.0555 23.6876 45.6182 23.7954 45.2252 24.0018L39.2615 27.1379C39.1483 27.1979 39.0205 27.2249 38.8927 27.2158C38.7649 27.2067 38.6422 27.1619 38.5386 27.0866C38.435 27.0112 38.3546 26.9083 38.3066 26.7895C38.2585 26.6707 38.2448 26.5408 38.267 26.4146L39.4049 19.7767C39.4801 19.3385 39.4475 18.8886 39.31 18.4658C39.1725 18.0429 38.9342 17.6599 38.6157 17.3497L33.79 12.6519C33.6978 12.5628 33.6325 12.4496 33.6014 12.3252C33.5704 12.2008 33.5749 12.0702 33.6145 11.9482C33.6541 11.8262 33.7271 11.7178 33.8253 11.6353C33.9235 11.5529 34.0428 11.4996 34.1698 11.4817L40.8413 10.5064C41.2808 10.4425 41.6981 10.2727 42.0575 10.0117C42.4168 9.75071 42.7073 9.40629 42.904 9.00811L45.8865 2.9644Z" fill="#FFC72C"/>
<path d="M76.8865 2.9644C76.9431 2.85004 77.0306 2.75377 77.139 2.68647C77.2474 2.61916 77.3724 2.5835 77.5 2.5835C77.6277 2.5835 77.7527 2.61916 77.8611 2.68647C77.9695 2.75377 78.057 2.85004 78.1136 2.9644L81.0973 9.00811C81.2939 9.4059 81.5841 9.75005 81.9429 10.011C82.3017 10.272 82.7185 10.442 83.1575 10.5064L89.8303 11.4829C89.9567 11.5013 90.0755 11.5546 90.1732 11.6369C90.2709 11.7192 90.3436 11.8272 90.3832 11.9487C90.4227 12.0702 90.4274 12.2003 90.3968 12.3244C90.3662 12.4484 90.3015 12.5614 90.21 12.6506L85.3844 17.3497C85.0661 17.6598 84.828 18.0426 84.6905 18.4652C84.5531 18.8878 84.5203 19.3374 84.5952 19.7754L85.7344 26.4146C85.7567 26.541 85.7431 26.6711 85.695 26.7901C85.647 26.9091 85.5664 27.0121 85.4626 27.0876C85.3588 27.163 85.2358 27.2077 85.1078 27.2166C84.9798 27.2255 84.8518 27.1982 84.7385 27.1379L78.7736 24.0018C78.3806 23.7954 77.9433 23.6876 77.4994 23.6876C77.0555 23.6876 76.6182 23.7954 76.2252 24.0018L70.2615 27.1379C70.1483 27.1979 70.0205 27.2249 69.8927 27.2158C69.7649 27.2067 69.6422 27.1619 69.5386 27.0866C69.435 27.0112 69.3546 26.9083 69.3066 26.7895C69.2585 26.6707 69.2448 26.5408 69.267 26.4146L70.4049 19.7767C70.4801 19.3385 70.4475 18.8886 70.31 18.4658C70.1725 18.0429 69.9342 17.6599 69.6157 17.3497L64.79 12.6519C64.6978 12.5628 64.6325 12.4496 64.6014 12.3252C64.5704 12.2008 64.5749 12.0702 64.6145 11.9482C64.6541 11.8262 64.7271 11.7178 64.8253 11.6353C64.9235 11.5529 65.0428 11.4996 65.1698 11.4817L71.8413 10.5064C72.2808 10.4425 72.6981 10.2727 73.0575 10.0117C73.4168 9.75071 73.7073 9.40629 73.904 9.00811L76.8865 2.9644Z" fill="#FFC72C"/>
<path d="M107.887 2.9644C107.943 2.85004 108.031 2.75377 108.139 2.68647C108.247 2.61916 108.372 2.5835 108.5 2.5835C108.628 2.5835 108.753 2.61916 108.861 2.68647C108.97 2.75377 109.057 2.85004 109.114 2.9644L112.097 9.00811C112.294 9.4059 112.584 9.75005 112.943 10.011C113.302 10.272 113.719 10.442 114.158 10.5064L120.83 11.4829C120.957 11.5013 121.076 11.5546 121.173 11.6369C121.271 11.7192 121.344 11.8272 121.383 11.9487C121.423 12.0702 121.427 12.2003 121.397 12.3244C121.366 12.4484 121.302 12.5614 121.21 12.6506L116.384 17.3497C116.066 17.6598 115.828 18.0426 115.691 18.4652C115.553 18.8878 115.52 19.3374 115.595 19.7754L116.734 26.4146C116.757 26.541 116.743 26.6711 116.695 26.7901C116.647 26.9091 116.566 27.0121 116.463 27.0876C116.359 27.163 116.236 27.2077 116.108 27.2166C115.98 27.2255 115.852 27.1982 115.739 27.1379L109.774 24.0018C109.381 23.7954 108.943 23.6876 108.499 23.6876C108.055 23.6876 107.618 23.7954 107.225 24.0018L101.262 27.1379C101.148 27.1979 101.021 27.2249 100.893 27.2158C100.765 27.2067 100.642 27.1619 100.539 27.0866C100.435 27.0112 100.355 26.9083 100.307 26.7895C100.259 26.6707 100.245 26.5408 100.267 26.4146L101.405 19.7767C101.48 19.3385 101.448 18.8886 101.31 18.4658C101.173 18.0429 100.934 17.6599 100.616 17.3497L95.79 12.6519C95.6978 12.5628 95.6325 12.4496 95.6014 12.3252C95.5704 12.2008 95.5749 12.0702 95.6145 11.9482C95.6541 11.8262 95.7271 11.7178 95.8253 11.6353C95.9235 11.5529 96.0428 11.4996 96.1698 11.4817L102.841 10.5064C103.281 10.4425 103.698 10.2727 104.057 10.0117C104.417 9.75071 104.707 9.40629 104.904 9.00811L107.887 2.9644Z" fill="#FFC72C"/>
<path d="M138.887 2.9644C138.943 2.85004 139.031 2.75377 139.139 2.68647C139.247 2.61916 139.372 2.5835 139.5 2.5835C139.628 2.5835 139.753 2.61916 139.861 2.68647C139.97 2.75377 140.057 2.85004 140.114 2.9644L143.097 9.00811C143.294 9.4059 143.584 9.75005 143.943 10.011C144.302 10.272 144.719 10.442 145.158 10.5064L151.83 11.4829C151.957 11.5013 152.076 11.5546 152.173 11.6369C152.271 11.7192 152.344 11.8272 152.383 11.9487C152.423 12.0702 152.427 12.2003 152.397 12.3244C152.366 12.4484 152.302 12.5614 152.21 12.6506L147.384 17.3497C147.066 17.6598 146.828 18.0426 146.691 18.4652C146.553 18.8878 146.52 19.3374 146.595 19.7754L147.734 26.4146C147.757 26.541 147.743 26.6711 147.695 26.7901C147.647 26.9091 147.566 27.0121 147.463 27.0876C147.359 27.163 147.236 27.2077 147.108 27.2166C146.98 27.2255 146.852 27.1982 146.739 27.1379L140.774 24.0018C140.381 23.7954 139.943 23.6876 139.499 23.6876C139.055 23.6876 138.618 23.7954 138.225 24.0018L132.262 27.1379C132.148 27.1979 132.021 27.2249 131.893 27.2158C131.765 27.2067 131.642 27.1619 131.539 27.0866C131.435 27.0112 131.355 26.9083 131.307 26.7895C131.259 26.6707 131.245 26.5408 131.267 26.4146L132.405 19.7767C132.48 19.3385 132.448 18.8886 132.31 18.4658C132.173 18.0429 131.934 17.6599 131.616 17.3497L126.79 12.6519C126.698 12.5628 126.632 12.4496 126.601 12.3252C126.57 12.2008 126.575 12.0702 126.614 11.9482C126.654 11.8262 126.727 11.7178 126.825 11.6353C126.923 11.5529 127.043 11.4996 127.17 11.4817L133.841 10.5064C134.281 10.4425 134.698 10.2727 135.057 10.0117C135.417 9.75071 135.707 9.40629 135.904 9.00811L138.887 2.9644Z" fill="#FFC72C"/>
</svg>
