<svg width="52" height="56" viewBox="0 0 52 56" fill="none" xmlns="http://www.w3.org/2000/svg">
<rect width="52" height="56" rx="8" fill="#005AEE"/>
<g clip-path="url(#clip0_356_14389)">
<path d="M34.2031 31.4459C32.8259 31.4459 31.5322 30.8646 30.3603 29.9131L30.6434 28.5706L30.6528 28.5171C30.9116 27.0912 31.7122 24.694 34.2022 24.694C36.0678 24.694 37.5809 26.2081 37.5809 28.0728C37.5809 29.9328 36.0669 31.4468 34.2022 31.4468L34.2031 31.4459ZM34.2031 21.275C31.0297 21.275 28.5631 23.3356 27.5628 26.7293C26.0394 24.439 24.8769 21.6856 24.2037 19.3662H20.7856V28.2575C20.7809 30.0153 19.3597 31.4365 17.6019 31.4412C15.8441 31.4365 14.4228 30.0106 14.4181 28.2575V19.3662H11V28.2575C11 31.8996 13.9634 34.8837 17.6019 34.8837C21.2441 34.8837 24.2037 31.9006 24.2037 28.2575V26.7678C24.8675 28.1496 25.6831 29.5559 26.6741 30.7962L24.5797 40.6353H28.0756L29.5944 33.4962C30.9228 34.3456 32.4509 34.8828 34.2041 34.8828C37.9541 34.8828 41.0009 31.8162 41.0009 28.0709C41.0009 24.3209 37.9541 21.274 34.2041 21.274L34.2031 21.275Z" fill="white"/>
</g>
<defs>
<clipPath id="clip0_356_14389">
<rect width="30" height="30" fill="white" transform="translate(11 15)"/>
</clipPath>
</defs>
</svg>
