<svg width="52" height="56" viewBox="0 0 52 56" fill="none" xmlns="http://www.w3.org/2000/svg">
<rect width="52" height="56" rx="11.2222" fill="#005AEE"/>
<path d="M27.0391 17.96H12.2818C10.9234 17.96 9.82227 19.0611 9.82227 20.4195C9.82227 21.7779 10.9234 22.879 12.2818 22.879H27.0391C28.3974 22.879 29.4986 21.7779 29.4986 20.4195C29.4986 19.0611 28.3974 17.96 27.0391 17.96Z" fill="white"/>
<path d="M40.1549 25.5029H12.2817C10.9234 25.5029 9.82227 26.604 9.82227 27.9623C9.82227 29.3206 10.9234 30.4217 12.2817 30.4217H40.1549C41.5132 30.4217 42.6143 29.3206 42.6143 27.9623C42.6143 26.604 41.5132 25.5029 40.1549 25.5029Z" fill="white"/>
<path d="M33.5965 33.0449H12.2817C10.9234 33.0449 9.82227 34.146 9.82227 35.5043C9.82227 36.8626 10.9234 37.9637 12.2817 37.9637H33.5965C34.9548 37.9637 36.0559 36.8626 36.0559 35.5043C36.0559 34.146 34.9548 33.0449 33.5965 33.0449Z" fill="white"/>
</svg>
