<svg width="40" height="40" viewBox="0 0 40 40" fill="none" xmlns="http://www.w3.org/2000/svg">
<path d="M33.3327 21.6667C33.3327 30.0001 27.4993 34.1667 20.566 36.5834C20.203 36.7064 19.8086 36.7005 19.4493 36.5667C12.4993 34.1667 6.66602 30.0001 6.66602 21.6667V10.0001C6.66602 9.55803 6.84161 9.13411 7.15417 8.82155C7.46673 8.50899 7.89065 8.33339 8.33268 8.33339C11.666 8.33339 15.8327 6.33339 18.7327 3.80006C19.0858 3.49839 19.5349 3.33264 19.9993 3.33264C20.4638 3.33264 20.9129 3.49839 21.266 3.80006C24.1827 6.35006 28.3327 8.33339 31.666 8.33339C32.108 8.33339 32.532 8.50899 32.8445 8.82155C33.1571 9.13411 33.3327 9.55803 33.3327 10.0001V21.6667Z" stroke="white" stroke-width="3" stroke-linecap="round" stroke-linejoin="round"/>
</svg>
