<svg width="40" height="40" viewBox="0 0 40 40" fill="none" xmlns="http://www.w3.org/2000/svg">
<path d="M26.143 25C25.2162 29.3832 23.0893 33.4224 19.9997 36.6667C15.7201 32.1731 13.333 26.2055 13.333 20C13.333 13.7946 15.7201 7.82696 19.9997 3.33337C16.9195 3.33418 13.8997 4.18856 11.2757 5.80168C8.65162 7.41479 6.52593 9.72353 5.13457 12.4716C3.74322 15.2197 3.14063 18.2996 3.3937 21.3694C3.64677 24.4392 4.7456 27.3788 6.56821 29.8619C8.39082 32.345 10.8659 34.2745 13.7187 35.4361C16.5715 36.5977 19.6904 36.946 22.7291 36.4424C25.7679 35.9388 28.6077 34.6029 30.9332 32.583C33.2587 30.5632 34.9789 27.9384 35.903 25M3.33301 20H17.4997M33.333 10V6.66671C33.333 5.78265 32.9818 4.93481 32.3567 4.30968C31.7316 3.68456 30.8837 3.33337 29.9997 3.33337C29.1156 3.33337 28.2678 3.68456 27.6427 4.30968C27.0175 4.93481 26.6663 5.78265 26.6663 6.66671V10M24.9997 10H34.9997C35.9201 10 36.6663 10.7462 36.6663 11.6667V16.6667C36.6663 17.5872 35.9201 18.3334 34.9997 18.3334H24.9997C24.0792 18.3334 23.333 17.5872 23.333 16.6667V11.6667C23.333 10.7462 24.0792 10 24.9997 10Z" stroke="white" stroke-width="3" stroke-linecap="round" stroke-linejoin="round"/>
</svg>
