<svg width="40" height="40" viewBox="0 0 40 40" fill="none" xmlns="http://www.w3.org/2000/svg">
<path d="M20 15V17.0967M26.6667 5V14.1M35 15.1967V8.33333C35 7.44928 34.6488 6.60143 34.0237 5.97631C33.3986 5.35119 32.5507 5 31.6667 5H8.33333C7.44928 5 6.60143 5.35119 5.97631 5.97631C5.35119 6.60143 5 7.44928 5 8.33333V31.6667C5 32.5507 5.35119 33.3986 5.97631 34.0237C6.60143 34.6488 7.44928 35 8.33333 35H17.9167M5 25H16.6667M5 15H25.2367M13.3333 25V35M13.3333 5V15M36.6667 29.1667C36.6667 33.3317 33.75 35.415 30.2833 36.6233C30.1018 36.6849 29.9046 36.6819 29.725 36.615C26.25 35.415 23.3333 33.3317 23.3333 29.165V23.3333C23.3338 23.1126 23.4218 22.9011 23.578 22.7452C23.7342 22.5892 23.9459 22.5017 24.1667 22.5017C25.8333 22.5017 27.9167 21.5017 29.3667 20.235C29.5452 20.0885 29.7688 20.0084 29.9997 20.008C30.2306 20.0077 30.4545 20.0873 30.6333 20.2333C32.0917 21.5083 34.1667 22.5 35.8333 22.5C36.0543 22.5 36.2663 22.5878 36.4226 22.7441C36.5789 22.9004 36.6667 23.1123 36.6667 23.3333V29.1667Z" stroke="white" stroke-width="3" stroke-linecap="round" stroke-linejoin="round"/>
</svg>
