<svg width="95" height="95" viewBox="0 0 95 95" fill="none" xmlns="http://www.w3.org/2000/svg">
<path d="M7.91675 37.6041C7.91683 33.1992 9.25306 28.898 11.7489 25.2686C14.2448 21.6391 17.783 18.8521 21.896 17.2756C26.0091 15.6992 30.5036 15.4075 34.786 16.439C39.0683 17.4706 42.937 19.7768 45.8811 23.0532C46.0885 23.275 46.3392 23.4517 46.6177 23.5726C46.8962 23.6934 47.1965 23.7558 47.5001 23.7558C47.8037 23.7558 48.104 23.6934 48.3825 23.5726C48.661 23.4517 48.9117 23.275 49.119 23.0532C52.0539 19.7555 55.9235 17.4299 60.2128 16.3858C64.5021 15.3417 69.0077 15.6288 73.1298 17.2087C77.2519 18.7886 80.7951 21.5865 83.2878 25.2299C85.7805 28.8734 87.1044 33.1896 87.0834 37.6041C87.0834 46.6686 81.1459 53.4374 75.2084 59.3749L53.4692 80.4055C52.7317 81.2526 51.8223 81.9331 50.8015 82.4017C49.7807 82.8703 48.6719 83.1164 47.5487 83.1235C46.4255 83.1306 45.3137 82.8986 44.287 82.443C43.2604 81.9873 42.3425 81.3184 41.5942 80.4807L19.7917 59.3749C13.8542 53.4374 7.91675 46.7082 7.91675 37.6041Z" fill="url(#paint0_linear_356_14462)" stroke="black" stroke-width="6" stroke-linecap="round" stroke-linejoin="round"/>
<defs>
<linearGradient id="paint0_linear_356_14462" x1="47.5002" y1="15.7693" x2="47.5002" y2="83.1236" gradientUnits="userSpaceOnUse">
<stop stop-color="#FF2D2D"/>
<stop offset="0.980769" stop-color="#FF9A9A"/>
</linearGradient>
</defs>
</svg>
