<svg width="74" height="26" viewBox="0 0 74 26" fill="none" xmlns="http://www.w3.org/2000/svg">
<g clip-path="url(#clip0_356_14327)">
<path d="M58.8482 3.13266L64.9975 2.06729V25.0361H58.8482V3.13266ZM67.8246 3.13266V25.0234H73.9739V2.06729L67.8246 3.13266ZM50.1063 25.0234H56.2556V8.23119H50.1063V25.0234ZM9.47141 10.6029C8.68972 10.5522 6.89184 10.438 6.89184 8.86534C6.89184 6.9629 9.48444 6.9629 10.4485 6.9629C12.1552 6.9629 14.37 7.45753 15.9464 7.91412C15.9464 7.91412 16.8323 8.21851 17.5749 8.5229L17.6401 8.53558V3.33558L17.5489 3.31022C15.6859 2.67607 13.5232 2.06729 9.49747 2.06729C2.56648 2.06729 0.117188 5.999 0.117188 9.35997C0.117188 11.3005 0.977047 15.8663 8.9112 16.399C9.58867 16.437 11.3735 16.5385 11.3735 18.1746C11.3735 19.519 9.91437 20.318 7.45205 20.318C4.75522 20.318 2.14958 19.6458 0.560145 19.0117V24.3766C2.93127 24.9853 5.61507 25.2897 8.75486 25.2897C15.5295 25.2897 18.5651 21.5736 18.5651 17.8829C18.5651 13.6975 15.1778 10.9834 9.47141 10.6029ZM46.6408 7.99022C40.9605 8.16778 38.0813 10.6536 38.0813 15.5873V25.0361H44.2827V17.3249C44.2827 14.3697 44.6735 13.1014 48.2823 12.9873V8.06631C47.657 7.95217 46.6408 7.99022 46.6408 7.99022ZM29.9647 8.21851C29.8344 8.54827 28.8443 11.2624 26.4601 14.0653V2.06729L20.1154 3.28485V25.0234H26.4601V18.3014C28.2971 20.9902 29.2091 25.0234 29.2091 25.0234H36.8045C36.0489 21.9795 32.7658 16.3736 32.7658 16.3736C35.7101 12.7336 37.013 8.85266 37.2214 8.20583H29.9647V8.21851ZM53.1679 6.62046C54.8355 6.62046 56.2035 5.30144 56.2035 3.67802C56.2035 2.05461 54.8485 0.7229 53.1679 0.7229C51.5003 0.7229 50.1454 2.04192 50.1454 3.67802C50.1454 5.30144 51.5003 6.62046 53.1679 6.62046Z" fill="url(#paint0_linear_356_14327)"/>
</g>
<defs>
<linearGradient id="paint0_linear_356_14327" x1="0.13022" y1="12.9984" x2="73.978" y2="12.9984" gradientUnits="userSpaceOnUse">
<stop stop-color="#872166"/>
<stop offset="1" stop-color="#4F2455"/>
</linearGradient>
<clipPath id="clip0_356_14327">
<rect width="74" height="26" fill="white"/>
</clipPath>
</defs>
</svg>
