<svg width="105" height="44" viewBox="0 0 105 44" fill="none" xmlns="http://www.w3.org/2000/svg">
<path d="M57.5482 12.0268H63.0982L60.3061 31.9966H54.7563L57.5482 12.0268ZM50.5513 12.0268L46.806 23.5307L45.1715 12.0268H41.29L36.387 23.4966L35.7742 12.0268H30.3944L32.2672 31.9966H36.7276L42.2434 19.3662L44.1843 31.9966H48.5764L55.8288 12.0268H50.5513ZM97.1467 23.6331H83.9699C84.0379 26.2277 85.5873 27.9344 87.8684 27.9344C89.588 27.9344 90.9499 27.0127 92.0054 25.2547L96.4538 27.2824C94.9251 30.3018 91.704 32.2697 87.7322 32.2697C82.3186 32.2697 78.7264 28.617 78.7264 22.7457C78.7264 16.2939 82.9484 11.7196 88.9069 11.7196C94.1503 11.7196 97.4531 15.2698 97.4531 20.7998C97.4531 21.7216 97.351 22.6433 97.1467 23.6331ZM92.2097 19.8099C92.2097 17.4887 90.9158 16.0208 88.8388 16.0208C86.762 16.0208 84.9233 17.5569 84.4467 19.8099H92.2097ZM13.0485 18.0451L7.38281 24.683H17.4986L18.6359 21.5526H14.3015L16.9504 18.482L16.959 18.4001L15.2361 15.4285H22.9839L16.9777 31.9966H21.0874L28.3397 12.0268H9.60278L13.0468 18.0451H13.0485ZM72.1211 16.0208C74.0787 16.0208 75.7948 17.0756 77.2929 18.8848L78.0796 13.2557C76.6834 12.3085 74.7938 11.7196 72.2913 11.7196C67.3202 11.7196 64.5282 14.6383 64.5282 18.3421C64.5282 20.9109 65.9583 22.4811 68.3076 23.4966L69.4312 24.0088C71.5251 24.9048 72.087 25.3485 72.087 26.2959C72.087 27.2432 71.1422 27.9003 69.7036 27.9003C67.3286 27.9087 65.405 26.6884 63.9579 24.6061L63.1561 30.3427C64.8041 31.6025 66.9168 32.2697 69.7036 32.2697C74.4278 32.2697 77.3305 29.5388 77.3305 25.7496C77.3305 23.1724 76.1898 21.5168 73.3128 20.2196L72.087 19.6393C70.3845 18.8797 69.8057 18.4616 69.8057 17.6252C69.8057 16.7206 70.5973 16.0208 72.1211 16.0208Z" fill="#163300"/>
</svg>
